<svg width="24" height="24" viewBox="0 0 24 24" fill="none" xmlns="http://www.w3.org/2000/svg">
<g clip-path="url(#clip0_352_352)">
<path d="M19.8209 0.0933495C22.6655 0.60152 23.8963 2.55784 23.9642 5.26934C24.0774 9.83628 23.8775 14.4192 23.9661 18.9881C23.8954 19.2577 23.9435 19.5396 23.9171 19.8093C23.7143 21.8881 21.9345 23.5795 19.9152 23.9029C19.5681 23.9585 18.9984 23.9915 18.6438 23.9972C18.6278 23.9972 18.6127 23.9972 18.5966 23.9972C17.1951 24.016 15.7322 23.9472 14.3127 23.95C14.2495 23.95 14.1873 23.95 14.1241 23.95C13.9204 23.95 13.7157 23.95 13.512 23.95C13.4648 23.95 13.4177 23.95 13.3705 23.95C13.1196 23.95 12.8678 23.95 12.6169 23.95C12.5698 23.95 12.5226 23.95 12.4754 23.95C12.2246 23.95 11.9727 23.95 11.7218 23.95C11.6747 23.95 11.6275 23.95 11.5804 23.95C11.3295 23.95 11.0777 23.9491 10.8268 23.95C10.7636 23.95 10.7013 23.95 10.6381 23.95C10.4033 23.951 10.1666 23.9491 9.9317 23.95C9.86851 23.95 9.80626 23.95 9.74307 23.95C9.49218 23.9519 9.24035 23.9482 8.98947 23.95C8.94231 23.95 8.89515 23.95 8.84799 23.95C8.59711 23.9519 8.34528 23.9463 8.0944 23.95C8.04724 23.95 8.00008 23.9491 7.95292 23.95C7.71901 23.9548 7.41909 23.9208 7.19933 23.95C7.14368 23.9576 7.07954 23.9953 7.05785 23.9972C6.41555 23.9359 5.77325 23.9566 5.12717 23.95C5.08001 23.95 5.03286 23.95 4.9857 23.95C4.74707 23.9463 4.51317 23.9651 4.27926 23.9029C4.18023 23.8671 4.07742 23.8086 4.06327 23.8077C2.00527 23.7398 0.406589 21.7986 0.088739 19.8554C0.0444098 19.5868 0.0557279 19.3652 0.0415803 19.1021C0.0387508 19.055 0.0434667 19.0079 0.0415803 18.9607L-0.00557837 18.8193C-0.00840789 18.7411 -0.00557837 18.6619 -0.00557837 18.5836L0.0415803 18.5365C0.0415803 18.5204 0.0415803 18.5054 0.0415803 18.4893C0.0227168 14.1647 0.132125 9.82402 0.0415803 5.50221C0.0415803 5.48618 0.0415803 5.4711 0.0415803 5.45507L-0.00557837 5.40793C-0.00746472 5.32968 -0.00369203 5.25143 -0.00557837 5.17223C0.0708187 4.84885 0.0387508 4.5217 0.088739 4.18417C0.502792 1.4095 2.56646 0.118805 5.22715 0.0462093C10.0817 -0.0857832 14.9711 0.105606 19.8218 0.0933495H19.8209ZM7.38985 5.37588C7.38985 4.25865 6.48346 3.35262 5.36485 3.35262C4.24625 3.35262 3.33986 4.25865 3.33986 5.37588C3.33986 6.4931 4.24625 7.39913 5.36485 7.39913C6.48346 7.39913 7.38985 6.4931 7.38985 5.37588ZM16.8555 20.2797H20.2689C20.3076 20.2797 20.3519 20.1656 20.3415 20.1175C19.8841 16.1615 22.2156 8.27217 15.7492 8.70492C14.6438 8.77845 13.5469 9.41579 12.8687 10.2681C12.848 10.2935 12.8621 10.5443 12.7122 10.4925V9.10466C12.7122 9.09618 12.6396 9.0217 12.6169 9.01133C11.6587 9.02547 10.5778 8.9095 9.62611 8.98493C9.53557 8.99247 9.4554 9.01227 9.36957 9.03395V20.209C9.36957 20.2137 9.43559 20.2797 9.44031 20.2797H12.7829C12.8216 20.2797 12.8659 20.1656 12.8555 20.1175C12.9376 18.1537 12.7376 16.0918 12.8537 14.1402C12.9027 13.3181 13.0894 12.4177 13.8874 12.0208C14.5608 11.6851 15.6087 11.6163 16.1915 12.1688C16.4028 12.3696 16.7159 12.9824 16.7527 13.2568C16.7773 13.4397 16.8555 13.7678 16.8555 13.9516V20.2807V20.2797ZM7.10972 8.98493H3.62564V20.2807H7.10972V8.98493Z" fill="#2E67B3"/>
</g>
<defs>
<clipPath id="clip0_352_352">
<rect width="24" height="24" fill="white"/>
</clipPath>
</defs>
</svg>
